<svg xmlns="http://www.w3.org/2000/svg" width="177.00002" height="50" viewBox="0 0 177.00002 50"><path d="M70.7955,14.91745q-.09914-.00331-.19829-.00494a9.80378,9.80378,0,0,0-7.32536,3.16916c-.10332.10332-.41573.10332-.41573-.05227V15.9519c0-.468-.05227-.52026-.519-.52026H58.80446c-.41573,0-.52034.05227-.52034.52026V49.04982c0,.46678.10461.51905.52034.51905h3.53261c.46678,0,.51905-.05227.51905-.519V35.538c0-.15559.31241-.15559.41573-.05227a9.88473,9.88473,0,0,0,7.32536,3.16916,11.51018,11.51018,0,0,0,11.278-11.73782q-.00159-.07977-.00425-.15947A11.46418,11.46418,0,0,0,70.7955,14.91745Zm6.39887,11.84016c.00129,4.46716-3.06432,7.74078-7.22014,7.74109-4.10728-.00031-7.11689-3.27393-7.11689-7.74109,0-4.4152,3.06583-7.68882,7.1175-7.68882a7.26058,7.26058,0,0,1,7.23214,7.289Q77.20619,26.55776,77.19437,26.75761Z"/><path d="M94.59845,14.91251a12.37952,12.37952,0,0,0-5.97478,1.45512.73184.73184,0,0,0-.41573.62237v3.17038c0,.36345.26013.46678.57132.25891a10.639,10.639,0,0,1,5.40346-1.66169c3.58488,0,5.40225,1.5061,5.40225,4.51966v1.19491c0,.36354-.1556.46679-.41581.31119a10.65684,10.65684,0,0,0-5.92251-1.81858c-5.14325,0-8.72692,3.2737-8.72692,7.89676,0,4.57193,3.53261,7.79336,8.52027,7.79336a7.11771,7.11771,0,0,0,6.286-2.86291c.10332-.15559.41451-.10332.41451.05227v1.76631c0,.41573.10454.52027.52027.52027h3.27248c.468,0,.52026-.10454.52026-.52027V23.225C104.04863,17.77048,100.82219,14.91251,94.59845,14.91251ZM93.92,34.91427c-2.95977-.00106-4.93288-1.66359-4.93288-4.20832,0-2.39,2.182-4.10773,5.29892-4.10773s5.1956,1.61071,5.1956,3.94834C99.47663,32.99184,97.03575,34.91321,93.92,34.91427Z"/><path d="M121.06555,14.91251a8.33,8.33,0,0,0-6.80008,3.84509c-.10325.1556-.41573.10325-.41573-.05234V15.9519c0-.468-.05105-.52026-.519-.52026h-3.53884c-.41573,0-.52027.05227-.52027.52026V37.61057c0,.41573.10454.52027.52027.52027h3.53261c.468,0,.519-.10454.519-.52027V28.62344c0-5.71465,2.18333-8.98834,6.0794-8.98834.77918,0,1.19491.10332,1.40278.10332.15559,0,.25891-.20665.25891-.57132V15.43164C121.5846,14.96485,121.53362,14.91251,121.06555,14.91251Z"/><path d="M134.61344,25.92608a.47162.47162,0,0,1,0-.519l8.00123-9.46014c.31118-.36346.25891-.52027-.10454-.52027h-4.77858c-.31248,0-.46807.10454-.83153.52027l-6.65072,8c-.31119.36475-.77918.26021-.77918-.10324V.95018c0-.468-.05106-.519-.51905-.519h-3.53262c-.41572,0-.52026.051-.52026.51905V37.61551c0,.41573.10454.52034.52026.52034h3.53512c.468,0,.519-.10461.519-.52034V27.58906c0-.36346.57132-.468.83146-.15559l7.27309,10.182c.3124.46807.36346.52034.83153.52034h4.67525c.41573,0,.468-.15688.20908-.52034Z"/><path d="M150.74915.43113h-3.53262c-.46678,0-.519.10332-.519.51905V37.61551c0,.41573.05227.52034.519.52034h3.53262c.468,0,.51905-.10461.51905-.52034V.95018C151.2682.53445,151.21714.43113,150.74915.43113Z"/><path d="M176.55771,15.43164h-3.89607c-.41572,0-.519.10453-.67586.52026l-6.0781,15.32537a.21656.21656,0,0,1-.41573,0L159.46611,15.9519c-.15559-.41573-.26021-.52026-.67593-.52026h-4.00061c-.46678,0-.519.1568-.36346.52026l8.72821,21.24788a.87771.87771,0,0,1,0,.52027l-4.57573,11.32977c-.15559.41443-.05105.51905.36346.51905h3.845c.41572,0,.519-.10462.67593-.519l13.45574-33.0942C177.07806,15.58844,177.02579,15.43164,176.55771,15.43164Z"/><path d="M23.84907,38.34634h13.039a.625.625,0,0,1,.625.625V45.759a.62505.62505,0,0,1-.62505.62505H23.849a.625.625,0,0,1-.625-.625V38.97139a.62505.62505,0,0,1,.62505-.62505Z" transform="translate(-21.06199 33.88251) rotate(-45.00024)"/><path d="M16.27051,30.76954h13.039a.62505.62505,0,0,1,.62505.62505v6.78765a.625.625,0,0,1-.625.625H16.27051a.625.625,0,0,1-.625-.625v-6.7877a.625.625,0,0,1,.625-.625Z" transform="translate(-17.92405 26.30429) rotate(-45)"/><path d="M1.11529,15.61416h13.039a.625.625,0,0,1,.625.625V23.0269a.625.625,0,0,1-.625.625H1.11529a.62506.62506,0,0,1-.62506-.62506V16.23922a.62506.62506,0,0,1,.62506-.62506Z" transform="translate(-11.64647 11.14899) rotate(-45)"/><rect x="27.64417" y="18.77137" width="14.2891" height="8.03768" rx="0.625" transform="translate(-5.92573 31.27444) rotate(-45)"/><rect x="20.06656" y="11.19367" width="14.2891" height="8.03768" rx="0.625" transform="translate(-2.78692 23.6968) rotate(-45)"/><path d="M13.11393,3.616h13.039A.62506.62506,0,0,1,26.778,4.241v6.78759a.62505.62505,0,0,1-.62505.62505h-13.039a.625.625,0,0,1-.625-.625V4.241a.625.625,0,0,1,.625-.625Z" transform="translate(0.35188 16.11915) rotate(-45)"/></svg>