<svg xmlns="http://www.w3.org/2000/svg" width="142" height="39.999" viewBox="0 0 142 39.999"><path d="M56.677,11.979l-.159,0a7.878,7.878,0,0,0-5.885,2.546c-.083.083-.334.083-.334-.042V12.81c0-.376-.042-.418-.417-.418H47.044c-.334,0-.418.042-.418.418V39.4c0,.375.084.417.418.417h2.838c.375,0,.417-.042.417-.417V28.545c0-.125.251-.125.334-.042a7.944,7.944,0,0,0,5.885,2.546,9.247,9.247,0,0,0,9.06-9.43c0-.043,0-.085,0-.128A9.21,9.21,0,0,0,56.677,11.979Zm5.141,9.512c0,3.589-2.462,6.219-5.8,6.219-3.3,0-5.718-2.63-5.718-6.219,0-3.547,2.463-6.177,5.718-6.177a5.833,5.833,0,0,1,5.81,5.856C61.828,21.277,61.824,21.384,61.818,21.491Z" transform="translate(0 0)" fill="#fff"/><path d="M75.8,11.975A9.949,9.949,0,0,0,71,13.144a.587.587,0,0,0-.334.5v2.547c0,.292.209.375.459.208a8.546,8.546,0,0,1,4.341-1.335c2.88,0,4.34,1.21,4.34,3.631v.96c0,.292-.125.375-.334.25a8.563,8.563,0,0,0-4.758-1.461c-4.132,0-7.011,2.63-7.011,6.344,0,3.673,2.838,6.261,6.845,6.261a5.719,5.719,0,0,0,5.05-2.3c.083-.125.333-.083.333.042V30.21c0,.334.084.418.418.418h2.629c.376,0,.418-.084.418-.418V18.653C83.392,14.271,80.8,11.975,75.8,11.975Zm-.545,16.069c-2.378,0-3.963-1.337-3.963-3.381,0-1.92,1.753-3.3,4.257-3.3s4.174,1.294,4.174,3.172C79.719,26.5,77.758,28.043,75.255,28.044Z" transform="translate(0 0)" fill="#fff"/><path d="M97.063,11.975A6.69,6.69,0,0,0,91.6,15.064c-.083.125-.334.083-.334-.042V12.81c0-.376-.041-.418-.417-.418H88.006c-.334,0-.418.042-.418.418v17.4c0,.334.084.418.418.418h2.838c.376,0,.417-.084.417-.418V22.99c0-4.591,1.754-7.221,4.884-7.221.626,0,.96.083,1.127.083.125,0,.208-.166.208-.459v-3C97.48,12.017,97.439,11.975,97.063,11.975Z" transform="translate(0 0)" fill="#fff"/><path d="M107.947,20.823a.38.38,0,0,1,0-.417l6.428-7.6c.25-.292.208-.418-.084-.418h-3.839c-.251,0-.376.084-.668.418l-5.343,6.427c-.25.293-.626.209-.626-.083V.758c0-.376-.041-.417-.417-.417H100.56c-.334,0-.418.041-.418.417V30.214c0,.334.084.418.418.418h2.84c.376,0,.417-.084.417-.418V22.159c0-.292.459-.376.668-.125l5.843,8.18c.251.376.292.418.668.418h3.756c.334,0,.376-.126.168-.418Z" transform="translate(0 0)" fill="#fff"/><path d="M120.91.341h-2.838c-.375,0-.417.083-.417.417V30.214c0,.334.042.418.417.418h2.838c.376,0,.417-.084.417-.418V.758C121.327.424,121.286.341,120.91.341Z" transform="translate(0 0)" fill="#fff"/><path d="M141.644,12.392h-3.13c-.334,0-.417.084-.543.418l-4.883,12.312a.174.174,0,0,1-.334,0L127.913,12.81c-.125-.334-.209-.418-.543-.418h-3.214c-.375,0-.417.126-.292.418l7.012,17.07a.709.709,0,0,1,0,.418L127.2,39.4c-.125.333-.041.417.292.417h3.089c.334,0,.417-.084.543-.417l10.81-26.587C142.062,12.518,142.02,12.392,141.644,12.392Z" transform="translate(0 0)" fill="#fff"/><rect x="18.579" y="30.676" width="11.431" height="6.43" rx="0.5" transform="translate(-16.849 27.105) rotate(-45)" fill="#fff"/><rect x="12.516" y="24.615" width="11.431" height="6.43" rx="0.5" transform="translate(-14.339 21.043) rotate(-45)" fill="#fff"/><rect x="0.392" y="12.491" width="11.431" height="6.43" rx="0.5" transform="translate(-9.317 8.919) rotate(-45)" fill="#fff"/><rect x="22.115" y="15.017" width="11.431" height="6.43" rx="0.5" transform="translate(-4.74 25.019) rotate(-45)" fill="#fff"/><rect x="16.053" y="8.955" width="11.431" height="6.43" rx="0.5" transform="translate(-2.229 18.957) rotate(-45)" fill="#fff"/><rect x="9.991" y="2.893" width="11.431" height="6.43" rx="0.5" transform="translate(0.282 12.895) rotate(-45)" fill="#fff"/></svg>