<svg xmlns="http://www.w3.org/2000/svg" width="240" height="68" viewBox="0 0 240 68"><path d="M96.206,20.349l-.268-.007a13.277,13.277,0,0,0-9.919,4.291c-.139.14-.562.14-.562-.071V21.749c0-.633-.071-.7-.7-.7H79.971c-.563,0-.7.071-.7.7V66.562c0,.632.142.7.7.7h4.783c.632,0,.7-.071.7-.7V48.268c0-.211.423-.211.562-.071a13.385,13.385,0,0,0,9.919,4.291A15.583,15.583,0,0,0,111.207,36.6q0-.108-.006-.216A15.521,15.521,0,0,0,96.206,20.349ZM104.87,36.38c0,6.048-4.149,10.48-9.776,10.481-5.561,0-9.636-4.433-9.636-10.481,0-5.978,4.151-10.41,9.637-10.41a9.83,9.83,0,0,1,9.792,9.868C104.886,36.019,104.88,36.2,104.87,36.38Z" fill="#101820"/><path d="M128.434,20.342a16.77,16.77,0,0,0-8.09,1.97.992.992,0,0,0-.563.843v4.292c0,.493.353.632.774.351a14.409,14.409,0,0,1,7.316-2.25c4.853,0,7.314,2.039,7.314,6.12v1.617c0,.493-.211.632-.563.422a14.431,14.431,0,0,0-8.019-2.463c-6.963,0-11.815,4.433-11.815,10.692,0,6.19,4.783,10.552,11.536,10.552a9.639,9.639,0,0,0,8.511-3.876c.139-.211.561-.14.561.07v2.392c0,.563.141.7.7.7h4.431c.633,0,.7-.141.7-.7V31.6C141.229,24.212,136.86,20.342,128.434,20.342Zm-.919,27.081c-4.007,0-6.679-2.252-6.679-5.7,0-3.235,2.955-5.561,7.175-5.561s7.034,2.181,7.034,5.346C135.038,44.82,131.734,47.422,127.515,47.423Z" fill="#101820"/><path d="M164.268,20.342a11.278,11.278,0,0,0-9.206,5.206c-.14.211-.563.14-.563-.071V21.749c0-.633-.069-.7-.7-.7h-4.791c-.563,0-.7.071-.7.7V51.074c0,.563.142.7.7.7h4.782c.634,0,.7-.141.7-.7V38.906c0-7.737,2.956-12.17,8.231-12.17,1.055,0,1.618.14,1.9.14.21,0,.35-.28.35-.773V21.045C164.971,20.413,164.9,20.342,164.268,20.342Z" fill="#101820"/><path d="M182.611,35.254a.641.641,0,0,1,0-.7l10.833-12.808c.422-.492.351-.7-.141-.7h-6.47c-.423,0-.634.142-1.126.7l-9,10.831c-.422.494-1.055.352-1.055-.14v-31c0-.634-.07-.7-.7-.7h-4.783c-.563,0-.7.069-.7.7V51.081c0,.562.141.7.7.7h4.786c.634,0,.7-.142.7-.7V37.505c0-.492.774-.633,1.126-.21l9.847,13.786c.423.633.492.7,1.126.7h6.33c.563,0,.633-.212.283-.7Z" fill="#101820"/><path d="M204.458.735h-4.783c-.632,0-.7.14-.7.7V51.081c0,.562.071.7.7.7h4.783c.634,0,.7-.142.7-.7V1.438C205.161.875,205.092.735,204.458.735Z" fill="#101820"/><path d="M239.4,21.045h-5.275c-.563,0-.7.142-.915.7L224.982,42.5a.293.293,0,0,1-.563,0l-8.159-20.75c-.21-.562-.352-.7-.915-.7h-5.417c-.631,0-.7.212-.492.7l11.818,28.769a1.19,1.19,0,0,1,0,.7l-6.195,15.34c-.211.561-.07.7.492.7h5.206c.562,0,.7-.142.915-.7L239.89,21.755C240.106,21.257,240.035,21.045,239.4,21.045Z" fill="#101820"/><rect x="31.585" y="52.151" width="19.433" height="10.931" rx="0.85" transform="translate(-28.644 46.08) rotate(-45)" fill="#101820"/><rect x="21.278" y="41.847" width="19.433" height="10.931" rx="0.85" transform="translate(-24.377 35.774) rotate(-45)" fill="#101820"/><rect x="0.667" y="21.235" width="19.433" height="10.931" rx="0.85" transform="translate(-15.839 15.163) rotate(-45)" fill="#101820"/><rect x="37.596" y="25.529" width="19.433" height="10.931" rx="0.85" transform="translate(-8.059 42.533) rotate(-45)" fill="#101820"/><rect x="27.291" y="15.223" width="19.433" height="10.931" rx="0.85" transform="translate(-3.79 32.228) rotate(-45)" fill="#101820"/><rect x="16.985" y="4.918" width="19.433" height="10.931" rx="0.85" transform="translate(0.479 21.922) rotate(-45)" fill="#101820"/></svg>